# xmcd
#
# Track frame offsets: 
#        150
#        16702
#        30367
#        42970
#        57422
#        71712
#        87027
#        102780
#        123005
#        139742
#        156552
#        173537
#        188422
#
# Disc length: 2711 seconds
#
# Revision: 6
# Processed by: cddbd v1.5.2PL0 Copyright (c) Steve Scherf et al.
# Submitted via: ExactAudioCopy v1.3
#
DISCID=980a950d
DTITLE=Aaron Tippin - Greatest Hits...& Then Some
DYEAR=1997
DGENRE=Country
TTITLE0=Cold Gray Kentucky Morning
TTITLE1=You've Got To Stand For Something
TTITLE2=There Ain't Nothin' Wrong With The Radio
TTITLE3=I Wouldn't Have It Any Other Way
TTITLE4=A Door
TTITLE5=My Blue Angel
TTITLE6=Working Man's Ph.D
TTITLE7=The Call Of The Wild
TTITLE8=That's What Happens When I Hold You
TTITLE9=Whole Lotta Love On The Line
TTITLE10=I Got It Honest
TTITLE11=That's As Close As I'll Get To Loving You
TTITLE12=If Only Your Eyes Could Lie
EXTD=
EXTT0=
EXTT1=
EXTT2=
EXTT3=
EXTT4=
EXTT5=
EXTT6=
EXTT7=
EXTT8=
EXTT9=
EXTT10=
EXTT11=
EXTT12=
PLAYORDER=
